<svg id="kity_svg_6" xmlns="http://www.w3.org/2000/svg" xmlns:xlink="http://www.w3.org/1999/xlink" version="1.1" width="1014" height="763" style="background: rgb(251, 251, 251); visibility: visible;" viewBox="0 0 1014 763"><defs id="kity_defs_7"><linearGradient id="kity_linearGradient_17" x1="0" y1="0" x2="0" y2="1"><stop id="kity_stop_18" offset="0" stop-color="rgb(255, 255, 255)"></stop><stop id="kity_stop_19" offset="1" stop-color="rgb(204, 204, 204)"></stop></linearGradient><marker id="kity_marker_2" orient="auto" refX="6" refY="0" viewBox="-7 -7 14 14" markerWidth="7" markerHeight="7" markerUnits="userSpaceOnUse"><path id="kity_path_3" fill="rgb(115, 191, 118)" stroke="none" d="M6,0A6,6,0,1,1,-6,0A6,6,0,1,1,6,0"></path></marker></defs><g id="kity_g_8"><g id="minder1" text-rendering="optimize-speed"><g id="minder_connect_group1"><path id="kity_path_31" fill="none" stroke="rgb(115, 191, 118)" stroke-width="1" d="M477,478.5A178.5,2,0,0,1,655.5,476.5"></path><path id="kity_path_33" fill="none" stroke="rgb(115, 191, 118)" stroke-width="1" d="M727.5,476.5C743,476.5,743,272.5,758.5,272.5L805.5,272.5"></path><path id="kity_path_35" fill="none" stroke="rgb(115, 191, 118)" stroke-width="1" d="M805.5,272.5C820.5,272.5,820.5,50.5,835.5,50.5L951.5,50.5"></path><path id="kity_path_37" fill="none" stroke="rgb(115, 191, 118)" stroke-width="1" d="M805.5,272.5C825.5,272.5,825.5,118.5,845.5,118.5L937.5,118.5"></path><path id="kity_path_39" fill="none" stroke="rgb(115, 191, 118)" stroke-width="1" d="M805.5,272.5C827.5,272.5,827.5,251.5,849.5,251.5L959.5,251.5"></path><path id="kity_path_41" fill="none" stroke="rgb(115, 191, 118)" stroke-width="1" d="M805.5,272.5C828,272.5,828,179.5,850.5,179.5L946.5,179.5"></path><path id="kity_path_43" fill="none" stroke="rgb(115, 191, 118)" stroke-width="1" d="M727.5,476.5C744.5,476.5,744.5,684.5,761.5,684.5L829.5,684.5"></path><path id="kity_path_45" fill="none" stroke="rgb(115, 191, 118)" stroke-width="1" d="M829.5,684.5C844.5,684.5,844.5,576.5,859.5,576.5L971.5,576.5"></path><path id="kity_path_47" fill="none" stroke="rgb(115, 191, 118)" stroke-width="1" d="M829.5,684.5C849.5,684.5,849.5,628.5,869.5,628.5L956.5,628.5"></path><path id="kity_path_49" fill="none" stroke="rgb(115, 191, 118)" stroke-width="1" d="M829.5,684.5C851.5,684.5,851.5,686.5,873.5,686.5L969.5,686.5"></path><path id="kity_path_51" fill="none" stroke="rgb(115, 191, 118)" stroke-width="1" d="M829.5,684.5C853.5,684.5,853.5,743.5,877.5,743.5L992.5,743.5"></path><path id="kity_path_53" fill="none" stroke="rgb(115, 191, 118)" stroke-width="1" d="M477,478.5A192.5,0,0,0,1,284.5,478.5"></path><path id="kity_path_55" fill="none" stroke="rgb(115, 191, 118)" stroke-width="1" d="M213.5,478.5C172.5,478.5,172.5,425.5,131.5,425.5L26.5,425.5"></path><path id="kity_path_57" fill="none" stroke="rgb(115, 191, 118)" stroke-width="1" d="M213.5,478.5C176.5,478.5,176.5,514.5,139.5,514.5L20.5,514.5"></path><path id="kity_path_155" fill="none" stroke="rgb(115, 191, 118)" stroke-width="1" d="M805.5,272.5C830.5,272.5,830.5,323.5,855.5,323.5L963.5,323.5"></path><path id="kity_path_166" fill="none" stroke="rgb(115, 191, 118)" stroke-width="1" d="M805.5,272.5C834,272.5,834,392.5,862.5,392.5L994.5,392.5"></path></g><g id="minder_node1"><path id="node_outline1" fill="rgb(115, 191, 118)" stroke="rgb(115, 191, 118)" d="M407.5,458.5h139a5,5,0,0,1,5,5v30a5,5,0,0,1,-5,5h-139a5,5,0,0,1,-5,-5v-30a5,5,0,0,1,5,-5z" stroke-width="3"></path><g id="node_text1" fill="white"><text id="kity_text_22" text-rendering="inherit" font-size="16" dy=".8em" y="468.09999990463257" x="426.5">pathProgram</text></g></g><g id="kity_g_14" display="none"><path id="kity_path_15" fill="rgba(0, 153, 5, 0.5)" stroke="none" d="M861.5,341.5h86v15h-86z"></path><path id="kity_path_16" fill="none" stroke="rgb(0, 128, 4)" d="M861.5,341.5L947.5,341.5" stroke-width="1"></path></g><g id="minder_node2"><g id="node_expander11" style="cursor: pointer;"><path id="kity_path_143" fill="white" stroke="gray" d="M656.5,476.5A6,6,0,1,1,644.5,476.5A6,6,0,1,1,656.5,476.5"></path><path id="kity_path_144" fill="none" stroke="gray" d="M646,476.5L655,476.5"></path></g><path id="node_outline12" fill="rgb(238, 246, 238)" stroke="rgb(115, 191, 118)" d="M660.5,463.5h64a3,3,0,0,1,3,3v20a3,3,0,0,1,-3,3h-64a3,3,0,0,1,-3,-3v-20a3,3,0,0,1,3,-3z" stroke-width="1"></path><g id="node_text12" fill="black"><text id="kity_text_79" text-rendering="inherit" font-size="14" dy=".8em" y="467.40000009536743" x="677.5">后台</text></g></g><g id="minder_node3"><g id="node_expander5" style="cursor: pointer;"><path id="kity_path_125" fill="white" stroke="gray" d="M768.5,258.5A6,6,0,1,1,756.5,258.5A6,6,0,1,1,768.5,258.5"></path><path id="kity_path_126" fill="none" stroke="gray" d="M758,258.5L767,258.5"></path></g><path id="node_outline6" fill="none" stroke="none" d="M773.5,247.5h27a5,5,0,0,1,5,5v12a5,5,0,0,1,-5,5h-27a5,5,0,0,1,-5,-5v-12a5,5,0,0,1,5,-5z" stroke-width="3"></path><g id="node_text6" fill="black"><text id="kity_text_67" text-rendering="inherit" font-size="12" dy=".8em" y="250.70000004768372" x="778.5">DB</text></g></g><g id="minder_node4"><g id="node_expander1" style="cursor: pointer;" display="none"><path id="kity_path_113" fill="white" stroke="gray" d="M845.5,34A6,6,0,1,1,833.5,34A6,6,0,1,1,845.5,34"></path><path id="kity_path_114" fill="none" stroke="gray"></path></g><path id="node_outline2" fill="none" stroke="none" d="M850.5,20.5h96a5,5,0,0,1,5,5v17a5,5,0,0,1,-5,5h-96a5,5,0,0,1,-5,-5v-17a5,5,0,0,1,5,-5z"></path><g id="node_text2" fill="black"><text id="kity_text_59" text-rendering="inherit" font-size="12" dy=".8em" y="25.700000047683716" x="855.5">pp_website</text></g><g id="kity_g_86" style="cursor: pointer;"><path id="kity_path_87" fill="none" stroke="none" d="M928,25h12a2,2,0,0,1,2,2v13a2,2,0,0,1,-2,2h-12a2,2,0,0,1,-2,-2v-13a2,2,0,0,1,2,-2z"></path><path id="kity_path_88" fill="black" stroke="none" d="M937,36H931V35h6L937,36L937,36zM937,34H931V33h6V34zM937,32H931V31h6V32zM936.5,38H930V29h8v7.5M937,39l2,-2V28H929v11"></path></g></g><g id="minder_node5"><g id="node_expander2" style="cursor: pointer;" display="none"><path id="kity_path_116" fill="white" stroke="gray" d="M855.5,102A6,6,0,1,1,843.5,102A6,6,0,1,1,855.5,102"></path><path id="kity_path_117" fill="none" stroke="gray"></path></g><path id="node_outline3" fill="none" stroke="none" d="M860.5,88.5h72a5,5,0,0,1,5,5v17a5,5,0,0,1,-5,5h-72a5,5,0,0,1,-5,-5v-17a5,5,0,0,1,5,-5z"></path><g id="node_text3" fill="black"><text id="kity_text_61" text-rendering="inherit" font-size="12" dy=".8em" y="93.70000004768372" x="865.5">pp_link</text></g><g id="kity_g_89" style="cursor: pointer;"><path id="kity_path_90" fill="none" stroke="none" d="M914,93h12a2,2,0,0,1,2,2v13a2,2,0,0,1,-2,2h-12a2,2,0,0,1,-2,-2v-13a2,2,0,0,1,2,-2z"></path><path id="kity_path_91" fill="black" stroke="none" d="M923,104H917V103h6L923,104L923,104zM923,102H917V101h6V102zM923,100H917V99h6V100zM922.5,106H916V97h8v7.5M923,107l2,-2V96H915v11"></path></g></g><g id="minder_node6" opacity="1"><g id="node_expander3" style="cursor: pointer;" display="none"><path id="kity_path_119" fill="white" stroke="gray" d="M859.5,235A6,6,0,1,1,847.5,235A6,6,0,1,1,859.5,235"></path><path id="kity_path_120" fill="none" stroke="gray"></path></g><path id="node_outline4" fill="none" stroke="none" d="M864.5,221.5h90a5,5,0,0,1,5,5v17a5,5,0,0,1,-5,5h-90a5,5,0,0,1,-5,-5v-17a5,5,0,0,1,5,-5z" stroke-width="3"></path><g id="node_text4" fill="black"><text id="kity_text_63" text-rendering="inherit" font-size="12" dy=".8em" y="226.70000004768372" x="869.5">pp_tourist</text></g><g id="kity_g_92" style="cursor: pointer;"><path id="kity_path_93" fill="none" stroke="none" d="M936,226h12a2,2,0,0,1,2,2v13a2,2,0,0,1,-2,2h-12a2,2,0,0,1,-2,-2v-13a2,2,0,0,1,2,-2z"></path><path id="kity_path_94" fill="black" stroke="none" d="M945,237H939V236h6L945,237L945,237zM945,235H939V234h6V235zM945,233H939V232h6V233zM944.5,239H938V230h8v7.5M945,240l2,-2V229H937v11"></path></g></g><g id="minder_node7" opacity="1"><g id="node_expander4" style="cursor: pointer;" display="none"><path id="kity_path_122" fill="white" stroke="gray" d="M860.5,163A6,6,0,1,1,848.5,163A6,6,0,1,1,860.5,163"></path><path id="kity_path_123" fill="none" stroke="gray"></path></g><path id="node_outline5" fill="none" stroke="none" d="M865.5,149.5h76a5,5,0,0,1,5,5v17a5,5,0,0,1,-5,5h-76a5,5,0,0,1,-5,-5v-17a5,5,0,0,1,5,-5z" stroke-width="3"></path><g id="node_text5" fill="black"><text id="kity_text_65" text-rendering="inherit" font-size="12" dy=".8em" y="154.70000004768372" x="870.5">pp_cate</text></g><g id="kity_g_95" style="cursor: pointer;"><path id="kity_path_96" fill="none" stroke="none" d="M923,154h12a2,2,0,0,1,2,2v13a2,2,0,0,1,-2,2h-12a2,2,0,0,1,-2,-2v-13a2,2,0,0,1,2,-2z"></path><path id="kity_path_97" fill="black" stroke="none" d="M932,165H926V164h6L932,165L932,165zM932,163H926V162h6V163zM932,161H926V160h6V161zM931.5,167H925V158h8v7.5M932,168l2,-2V157H924v11"></path></g></g><g id="minder_node8"><g id="node_expander10" style="cursor: pointer;"><path id="kity_path_140" fill="white" stroke="gray" d="M771.5,670.5A6,6,0,1,1,759.5,670.5A6,6,0,1,1,771.5,670.5"></path><path id="kity_path_141" fill="none" stroke="gray" d="M761,670.5L770,670.5"></path></g><path id="node_outline11" fill="none" stroke="none" d="M776.5,659.5h48a5,5,0,0,1,5,5v12a5,5,0,0,1,-5,5h-48a5,5,0,0,1,-5,-5v-12a5,5,0,0,1,5,-5z"></path><g id="node_text11" fill="black"><text id="kity_text_77" text-rendering="inherit" font-size="12" dy=".8em" y="662.7000000476837" x="781.5">业务层</text></g></g><g id="minder_node9"><g id="node_expander6" style="cursor: pointer;" display="none"><path id="kity_path_128" fill="white" stroke="gray" d="M869.5,562.5A6,6,0,1,1,857.5,562.5A6,6,0,1,1,869.5,562.5"></path><path id="kity_path_129" fill="none" stroke="gray"></path></g><path id="node_outline7" fill="none" stroke="none" d="M874.5,551.5h92a5,5,0,0,1,5,5v12a5,5,0,0,1,-5,5h-92a5,5,0,0,1,-5,-5v-12a5,5,0,0,1,5,-5z"></path><g id="node_text7" fill="black"><text id="kity_text_69" text-rendering="inherit" font-size="12" dy=".8em" y="554.7000000476837" x="879.5">website:CURD</text></g></g><g id="minder_node10"><g id="node_expander7" style="cursor: pointer;" display="none"><path id="kity_path_131" fill="white" stroke="gray" d="M879.5,614.5A6,6,0,1,1,867.5,614.5A6,6,0,1,1,879.5,614.5"></path><path id="kity_path_132" fill="none" stroke="gray"></path></g><path id="node_outline8" fill="none" stroke="none" d="M884.5,603.5h67a5,5,0,0,1,5,5v12a5,5,0,0,1,-5,5h-67a5,5,0,0,1,-5,-5v-12a5,5,0,0,1,5,-5z"></path><g id="node_text8" fill="black"><text id="kity_text_71" text-rendering="inherit" font-size="12" dy=".8em" y="606.7000000476837" x="889.5">link:CURD</text></g></g><g id="minder_node11"><g id="node_expander8" style="cursor: pointer;" display="none"><path id="kity_path_134" fill="white" stroke="gray" d="M883.5,672.5A6,6,0,1,1,871.5,672.5A6,6,0,1,1,883.5,672.5"></path><path id="kity_path_135" fill="none" stroke="gray"></path></g><path id="node_outline9" fill="none" stroke="none" d="M888.5,661.5h76a5,5,0,0,1,5,5v12a5,5,0,0,1,-5,5h-76a5,5,0,0,1,-5,-5v-12a5,5,0,0,1,5,-5z" stroke-width="3"></path><g id="node_text9" fill="black"><text id="kity_text_73" text-rendering="inherit" font-size="12" dy=".8em" y="664.7000000476837" x="893.5">tourist:显示</text></g></g><g id="minder_node12" opacity="1"><g id="node_expander9" style="cursor: pointer;" display="none"><path id="kity_path_137" fill="white" stroke="gray" d="M887.5,729.5A6,6,0,1,1,875.5,729.5A6,6,0,1,1,887.5,729.5"></path><path id="kity_path_138" fill="none" stroke="gray"></path></g><path id="node_outline10" fill="none" stroke="none" d="M892.5,718.5h95a5,5,0,0,1,5,5v12a5,5,0,0,1,-5,5h-95a5,5,0,0,1,-5,-5v-12a5,5,0,0,1,5,-5z" stroke-width="3"></path><g id="node_text10" fill="black"><text id="kity_text_75" text-rendering="inherit" font-size="12" dy=".8em" y="721.7000000476837" x="897.5">admin日志显示</text></g></g><g id="minder_node13"><g id="node_expander14" style="cursor: pointer;"><path id="kity_path_152" fill="white" stroke="gray" d="M295.5,478.5A6,6,0,1,1,283.5,478.5A6,6,0,1,1,295.5,478.5"></path><path id="kity_path_153" fill="none" stroke="gray" d="M285,478.5L294,478.5"></path></g><path id="node_outline15" fill="rgb(238, 246, 238)" stroke="rgb(115, 191, 118)" d="M216.5,465.5h63a3,3,0,0,1,3,3v20a3,3,0,0,1,-3,3h-63a3,3,0,0,1,-3,-3v-20a3,3,0,0,1,3,-3z" stroke-width="1"></path><g id="node_text15" fill="black"><text id="kity_text_85" text-rendering="inherit" font-size="14" dy=".8em" y="469.40000009536743" x="233.5">前台</text></g></g><g id="minder_node14"><g id="node_expander12" style="cursor: pointer;" display="none"><path id="kity_path_146" fill="white" stroke="gray" d="M133.5,411.5A6,6,0,1,1,121.5,411.5A6,6,0,1,1,133.5,411.5"></path><path id="kity_path_147" fill="none" stroke="gray"></path></g><path id="node_outline13" fill="none" stroke="none" d="M31.5,400.5h85a5,5,0,0,1,5,5v12a5,5,0,0,1,-5,5h-85a5,5,0,0,1,-5,-5v-12a5,5,0,0,1,5,-5z"></path><g id="node_text13" fill="black"><text id="kity_text_81" text-rendering="inherit" font-size="12" dy=".8em" y="403.7000000476837" x="36.5">link_cate类型</text></g></g><g id="minder_node15"><g id="node_expander13" style="cursor: pointer;" display="none"><path id="kity_path_149" fill="white" stroke="gray" d="M141.5,500.5A6,6,0,1,1,129.5,500.5A6,6,0,1,1,141.5,500.5"></path><path id="kity_path_150" fill="none" stroke="gray"></path></g><path id="node_outline14" fill="none" stroke="none" d="M25.5,489.5h99a5,5,0,0,1,5,5v12a5,5,0,0,1,-5,5h-99a5,5,0,0,1,-5,-5v-12a5,5,0,0,1,5,-5z"></path><g id="node_text14" fill="black"><text id="kity_text_83" text-rendering="inherit" font-size="12" dy=".8em" y="492.7000000476837" x="30.5">其它&amp;&amp;contact</text></g></g><g id="kity_g_12" display="none"><path id="kity_path_13" fill="none" stroke="rgb(66, 112, 68)" d="M866.5,309.5h76a5,5,0,0,1,5,5v17a5,5,0,0,1,-5,5h-76a5,5,0,0,1,-5,-5v-17a5,5,0,0,1,5,-5z" stroke-width="5"></path></g><g id="minder_node16" opacity="1"><g id="node_expander15" style="cursor: pointer;" display="none"><path id="kity_path_160" fill="white" stroke="gray" d="M865.5,307A6,6,0,1,1,853.5,307A6,6,0,1,1,865.5,307"></path><path id="kity_path_161" fill="none" stroke="gray"></path></g><path id="node_outline16" fill="none" stroke="none" d="M870.5,293.5h88a5,5,0,0,1,5,5v17a5,5,0,0,1,-5,5h-88a5,5,0,0,1,-5,-5v-17a5,5,0,0,1,5,-5z" stroke-width="3"></path><g id="node_text16" fill="black"><text id="kity_text_157" text-rendering="inherit" font-size="12" dy=".8em" y="298.7000000476837" x="875.5">pp_admin</text></g><g id="kity_g_162" style="cursor: pointer;"><path id="kity_path_163" fill="none" stroke="none" d="M940,298h12a2,2,0,0,1,2,2v13a2,2,0,0,1,-2,2h-12a2,2,0,0,1,-2,-2v-13a2,2,0,0,1,2,-2z"></path><path id="kity_path_164" fill="black" stroke="none" d="M949,309H943V308h6L949,309L949,309zM949,307H943V306h6V307zM949,305H943V304h6V305zM948.5,311H942V302h8v7.5M949,312l2,-2V301H941v11"></path></g></g><g id="minder_node17" opacity="1"><g id="node_expander16" style="cursor: pointer;" display="none"><path id="kity_path_171" fill="white" stroke="gray" d="M872.5,376A6,6,0,1,1,860.5,376A6,6,0,1,1,872.5,376"></path><path id="kity_path_172" fill="none" stroke="gray"></path></g><path id="node_outline17" fill="none" stroke="none" d="M877.5,362.5h112a5,5,0,0,1,5,5v17a5,5,0,0,1,-5,5h-112a5,5,0,0,1,-5,-5v-17a5,5,0,0,1,5,-5z" stroke-width="3"></path><g id="node_text17" fill="black"><text id="kity_text_168" text-rendering="inherit" font-size="12" dy=".8em" y="367.7000000476837" x="882.5">pp_admin_log</text></g><g id="kity_g_173" style="cursor: pointer;"><path id="kity_path_174" fill="none" stroke="none" d="M971,367h12a2,2,0,0,1,2,2v13a2,2,0,0,1,-2,2h-12a2,2,0,0,1,-2,-2v-13a2,2,0,0,1,2,-2z"></path><path id="kity_path_175" fill="black" stroke="none" d="M980,378H974V377h6L980,378L980,378zM980,376H974V375h6V376zM980,374H974V373h6V374zM979.5,380H973V371h8v7.5M980,381l2,-2V370H972v11"></path></g></g></g></g></svg>