<svg id="kity_svg_6" xmlns="http://www.w3.org/2000/svg" xmlns:xlink="http://www.w3.org/1999/xlink" version="1.1" width="997" height="649" style="background: rgb(251, 251, 251); visibility: visible;" viewBox="0 0 997 649"><defs id="kity_defs_7"><linearGradient id="kity_linearGradient_17" x1="0" y1="0" x2="0" y2="1"><stop id="kity_stop_18" offset="0" stop-color="rgb(255, 255, 255)"></stop><stop id="kity_stop_19" offset="1" stop-color="rgb(204, 204, 204)"></stop></linearGradient><marker id="kity_marker_4" orient="auto" refX="6" refY="0" viewBox="-7 -7 14 14" markerWidth="7" markerHeight="7" markerUnits="userSpaceOnUse"><path id="kity_path_5" fill="rgb(115, 191, 118)" stroke="none" d="M6,0A6,6,0,1,1,-6,0A6,6,0,1,1,6,0"></path></marker><marker id="kity_marker_2" orient="auto" refX="6" refY="0" viewBox="-7 -7 14 14" markerWidth="7" markerHeight="7" markerUnits="userSpaceOnUse"><path id="kity_path_3" fill="rgb(115, 191, 118)" stroke="none" d="M6,0A6,6,0,1,1,-6,0A6,6,0,1,1,6,0"></path></marker></defs><g id="kity_g_8"><g id="minder1" text-rendering="optimize-speed"><g id="minder_connect_group1"><path id="kity_path_31" fill="none" stroke="rgb(115, 191, 118)" stroke-width="1" d="M477,393.5A178.5,2,0,0,1,655.5,391.5"></path><path id="kity_path_39" fill="none" stroke="rgb(115, 191, 118)" stroke-width="1" d="M477,393.5A192.5,0,0,0,1,284.5,393.5"></path><path id="kity_path_55" fill="none" stroke="rgb(115, 191, 118)" stroke-width="1" d="M727.5,391.5C743,391.5,743,215.5,758.5,215.5L805.5,215.5"></path><path id="kity_path_103" fill="none" stroke="rgb(115, 191, 118)" stroke-width="1" d="M805.5,215.5C820.5,215.5,820.5,50.5,835.5,50.5L951.5,50.5"></path><path id="kity_path_104" fill="none" stroke="rgb(115, 191, 118)" stroke-width="1" d="M805.5,215.5C825.5,215.5,825.5,118.5,845.5,118.5L937.5,118.5"></path><path id="kity_path_105" fill="none" stroke="rgb(115, 191, 118)" stroke-width="1" d="M805.5,215.5C827,215.5,827,195.5,848.5,195.5L958.5,195.5"></path><path id="kity_path_107" fill="none" stroke="rgb(115, 191, 118)" stroke-width="1" d="M727.5,391.5C744.5,391.5,744.5,570.5,761.5,570.5L829.5,570.5"></path><path id="kity_path_115" fill="none" stroke="rgb(115, 191, 118)" stroke-width="1" d="M829.5,570.5C849.5,570.5,849.5,514.5,869.5,514.5L956.5,514.5"></path><path id="kity_path_123" fill="none" stroke="rgb(115, 191, 118)" stroke-width="1" d="M829.5,570.5C844.5,570.5,844.5,462.5,859.5,462.5L971.5,462.5"></path><path id="kity_path_131" fill="none" stroke="rgb(115, 191, 118)" stroke-width="1" d="M213.5,393.5C172.5,393.5,172.5,340.5,131.5,340.5L26.5,340.5"></path><path id="kity_path_139" fill="none" stroke="rgb(115, 191, 118)" stroke-width="1" d="M805.5,215.5C831.5,215.5,831.5,266.5,857.5,266.5L968.5,266.5"></path><path id="kity_path_150" fill="none" stroke="rgb(115, 191, 118)" stroke-width="1" d="M829.5,570.5C851.5,570.5,851.5,572.5,873.5,572.5L969.5,572.5"></path><path id="kity_path_158" fill="none" stroke="rgb(115, 191, 118)" stroke-width="1" d="M829.5,570.5C855,570.5,855,629.5,880.5,629.5L977.5,629.5"></path><path id="kity_path_166" fill="none" stroke="rgb(115, 191, 118)" stroke-width="1" d="M213.5,393.5C176.5,393.5,176.5,429.5,139.5,429.5L20.5,429.5"></path></g><g id="minder_node1"><path id="kity_path_175" fill="rgba(0, 0, 0, .25)" stroke="none" d="M410.5,371.5h192a5,5,0,0,1,5,5v44a5,5,0,0,1,-5,5h-192a5,5,0,0,1,-5,-5v-44a5,5,0,0,1,5,-5z" display="none"></path><path id="node_outline1" fill="rgb(115, 191, 118)" stroke="rgb(115, 191, 118)" d="M407.5,373.5h139a5,5,0,0,1,5,5v30a5,5,0,0,1,-5,5h-139a5,5,0,0,1,-5,-5v-30a5,5,0,0,1,5,-5z" stroke-width="3"></path><g id="node_text1" fill="white"><text id="kity_text_22" text-rendering="inherit" font-size="16" dy=".8em" y="383.09999990463257" x="426.5">pathProgram</text></g></g><g id="kity_g_14" display="none"><path id="kity_path_15" fill="rgba(0, 92, 153, 0.5)" stroke="none" d="M874.5,530.5h70v15h-70z"></path><path id="kity_path_16" fill="none" stroke="rgb(0, 76, 128)" d="M874.5,545.5L944.5,545.5" stroke-width="1"></path></g><g id="minder_node2" opacity="1"><path id="kity_path_173" fill="rgba(0, 0, 0, .25)" stroke="none" d="M666.5,382.5h64a5,5,0,0,1,5,5v18a5,5,0,0,1,-5,5h-64a5,5,0,0,1,-5,-5v-18a5,5,0,0,1,5,-5z" display="none"></path><g id="node_expander1" style="cursor: pointer;"><path id="kity_path_36" fill="white" stroke="gray" d="M656.5,391.5A6,6,0,1,1,644.5,391.5A6,6,0,1,1,656.5,391.5"></path><path id="kity_path_37" fill="none" stroke="gray" d="M646,391.5L655,391.5"></path></g><path id="node_outline2" fill="rgb(238, 246, 238)" stroke="rgb(115, 191, 118)" d="M660.5,378.5h64a3,3,0,0,1,3,3v20a3,3,0,0,1,-3,3h-64a3,3,0,0,1,-3,-3v-20a3,3,0,0,1,3,-3z" stroke-width="1"></path><g id="node_text2" fill="black"><text id="kity_text_33" text-rendering="inherit" font-size="14" dy=".8em" y="382.40000009536743" x="677.5">后台</text></g></g><g id="minder_node3"><path id="kity_path_174" fill="rgba(0, 0, 0, .25)" stroke="none" d="M222.5,384.5h63a5,5,0,0,1,5,5v18a5,5,0,0,1,-5,5h-63a5,5,0,0,1,-5,-5v-18a5,5,0,0,1,5,-5z" display="none"></path><g id="node_expander2" style="cursor: pointer;"><path id="kity_path_44" fill="white" stroke="gray" d="M295.5,393.5A6,6,0,1,1,283.5,393.5A6,6,0,1,1,295.5,393.5"></path><path id="kity_path_45" fill="none" stroke="gray" d="M285,393.5L294,393.5"></path></g><path id="node_outline3" fill="rgb(238, 246, 238)" stroke="rgb(115, 191, 118)" d="M216.5,380.5h63a3,3,0,0,1,3,3v20a3,3,0,0,1,-3,3h-63a3,3,0,0,1,-3,-3v-20a3,3,0,0,1,3,-3z" stroke-width="1"></path><g id="node_text3" fill="black"><text id="kity_text_41" text-rendering="inherit" font-size="14" dy=".8em" y="384.40000009536743" x="233.5">前台</text></g></g><g id="minder_node5" opacity="1"><path id="kity_path_180" fill="rgba(0, 0, 0, .25)" stroke="none" d="M791.5,189h0a18,18,0,0,1,18,18v0a18,18,0,0,1,-18,18h0a18,18,0,0,1,-18,-18v0a18,18,0,0,1,18,-18z" display="none"></path><g id="node_expander4" style="cursor: pointer;"><path id="kity_path_60" fill="white" stroke="gray" d="M768.5,201.5A6,6,0,1,1,756.5,201.5A6,6,0,1,1,768.5,201.5"></path><path id="kity_path_61" fill="none" stroke="gray" d="M758,201.5L767,201.5"></path></g><path id="node_outline5" fill="none" stroke="none" d="M773.5,190.5h27a5,5,0,0,1,5,5v12a5,5,0,0,1,-5,5h-27a5,5,0,0,1,-5,-5v-12a5,5,0,0,1,5,-5z" stroke-width="3"></path><g id="node_text5" fill="black"><text id="kity_text_57" text-rendering="inherit" font-size="12" dy=".8em" y="193.70000004768372" x="778.5">DB</text></g></g><g id="minder_node6" opacity="1"><path id="kity_path_176" fill="rgba(0, 0, 0, .25)" stroke="none" d="M905.5,-14h0a53,53,0,0,1,53,53v0a53,53,0,0,1,-53,53h0a53,53,0,0,1,-53,-53v0a53,53,0,0,1,53,-53z" display="none"></path><g id="node_expander5" style="cursor: pointer;" display="none"><path id="kity_path_68" fill="white" stroke="gray" d="M845.5,34A6,6,0,1,1,833.5,34A6,6,0,1,1,845.5,34"></path><path id="kity_path_69" fill="none" stroke="gray"></path></g><path id="node_outline6" fill="none" stroke="none" d="M850.5,20.5h96a5,5,0,0,1,5,5v17a5,5,0,0,1,-5,5h-96a5,5,0,0,1,-5,-5v-17a5,5,0,0,1,5,-5z" stroke-width="3"></path><g id="node_text6" fill="black"><text id="kity_text_65" text-rendering="inherit" font-size="12" dy=".8em" y="25.700000047683716" x="855.5">pp_website</text></g><g id="kity_g_94" style="cursor: pointer;"><path id="kity_path_95" fill="none" stroke="none" d="M928,25h12a2,2,0,0,1,2,2v13a2,2,0,0,1,-2,2h-12a2,2,0,0,1,-2,-2v-13a2,2,0,0,1,2,-2z"></path><path id="kity_path_96" fill="black" stroke="none" d="M937,36H931V35h6L937,36L937,36zM937,34H931V33h6V34zM937,32H931V31h6V32zM936.5,38H930V29h8v7.5M937,39l2,-2V28H929v11"></path></g></g><g id="minder_node7" opacity="1"><path id="kity_path_177" fill="rgba(0, 0, 0, .25)" stroke="none" d="M902.5,67h0a40,40,0,0,1,40,40v0a40,40,0,0,1,-40,40h0a40,40,0,0,1,-40,-40v0a40,40,0,0,1,40,-40z" display="none"></path><g id="node_expander6" style="cursor: pointer;" display="none"><path id="kity_path_76" fill="white" stroke="gray" d="M855.5,102A6,6,0,1,1,843.5,102A6,6,0,1,1,855.5,102"></path><path id="kity_path_77" fill="none" stroke="gray"></path></g><path id="node_outline7" fill="none" stroke="none" d="M860.5,88.5h72a5,5,0,0,1,5,5v17a5,5,0,0,1,-5,5h-72a5,5,0,0,1,-5,-5v-17a5,5,0,0,1,5,-5z" stroke-width="3"></path><g id="node_text7" fill="black"><text id="kity_text_73" text-rendering="inherit" font-size="12" dy=".8em" y="93.70000004768372" x="865.5">pp_link</text></g><g id="kity_g_97" style="cursor: pointer;"><path id="kity_path_98" fill="none" stroke="none" d="M914,93h12a2,2,0,0,1,2,2v13a2,2,0,0,1,-2,2h-12a2,2,0,0,1,-2,-2v-13a2,2,0,0,1,2,-2z"></path><path id="kity_path_99" fill="black" stroke="none" d="M923,104H917V103h6L923,104L923,104zM923,102H917V101h6V102zM923,100H917V99h6V100zM922.5,106H916V97h8v7.5M923,107l2,-2V96H915v11"></path></g></g><g id="minder_node8" opacity="1"><path id="kity_path_178" fill="rgba(0, 0, 0, .25)" stroke="none" d="M914.5,135h0a49,49,0,0,1,49,49v0a49,49,0,0,1,-49,49h0a49,49,0,0,1,-49,-49v0a49,49,0,0,1,49,-49z" display="none"></path><g id="node_expander7" style="cursor: pointer;" display="none"><path id="kity_path_84" fill="white" stroke="gray" d="M858.5,179A6,6,0,1,1,846.5,179A6,6,0,1,1,858.5,179"></path><path id="kity_path_85" fill="none" stroke="gray"></path></g><path id="node_outline8" fill="none" stroke="none" d="M863.5,165.5h90a5,5,0,0,1,5,5v17a5,5,0,0,1,-5,5h-90a5,5,0,0,1,-5,-5v-17a5,5,0,0,1,5,-5z" stroke-width="3"></path><g id="node_text8" fill="black"><text id="kity_text_81" text-rendering="inherit" font-size="12" dy=".8em" y="170.70000004768372" x="868.5">pp_tourist</text></g><g id="kity_g_100" style="cursor: pointer;"><path id="kity_path_101" fill="none" stroke="none" d="M935,170h12a2,2,0,0,1,2,2v13a2,2,0,0,1,-2,2h-12a2,2,0,0,1,-2,-2v-13a2,2,0,0,1,2,-2z"></path><path id="kity_path_102" fill="black" stroke="none" d="M944,181H938V180h6L944,181L944,181zM944,179H938V178h6V179zM944,177H938V176h6V177zM943.5,183H937V174h8v7.5M944,184l2,-2V173H936v11"></path></g></g><g id="minder_node10" opacity="1"><path id="kity_path_185" fill="rgba(0, 0, 0, .25)" stroke="none" d="M806,534h0a28,28,0,0,1,28,28v0a28,28,0,0,1,-28,28h0a28,28,0,0,1,-28,-28v0a28,28,0,0,1,28,-28z" display="none"></path><g id="node_expander9" style="cursor: pointer;"><path id="kity_path_112" fill="white" stroke="gray" d="M771.5,556.5A6,6,0,1,1,759.5,556.5A6,6,0,1,1,771.5,556.5"></path><path id="kity_path_113" fill="none" stroke="gray" d="M761,556.5L770,556.5"></path></g><path id="node_outline10" fill="none" stroke="none" d="M776.5,545.5h48a5,5,0,0,1,5,5v12a5,5,0,0,1,-5,5h-48a5,5,0,0,1,-5,-5v-12a5,5,0,0,1,5,-5z" stroke-width="3"></path><g id="node_text10" fill="black"><text id="kity_text_109" text-rendering="inherit" font-size="12" dy=".8em" y="548.7000000476837" x="781.5">业务层</text></g></g><g id="minder_node11" opacity="1"><path id="kity_path_182" fill="rgba(0, 0, 0, .25)" stroke="none" d="M924.5,468h0a38,38,0,0,1,38,38v0a38,38,0,0,1,-38,38h0a38,38,0,0,1,-38,-38v0a38,38,0,0,1,38,-38z" display="none"></path><g id="node_expander10" style="cursor: pointer;" display="none"><path id="kity_path_120" fill="white" stroke="gray" d="M879.5,500.5A6,6,0,1,1,867.5,500.5A6,6,0,1,1,879.5,500.5"></path><path id="kity_path_121" fill="none" stroke="gray"></path></g><path id="node_outline11" fill="none" stroke="none" d="M884.5,489.5h67a5,5,0,0,1,5,5v12a5,5,0,0,1,-5,5h-67a5,5,0,0,1,-5,-5v-12a5,5,0,0,1,5,-5z" stroke-width="3"></path><g id="node_text11" fill="black"><text id="kity_text_117" text-rendering="inherit" font-size="12" dy=".8em" y="492.7000000476837" x="889.5">link:CURD</text></g></g><g id="minder_node12" opacity="1"><path id="kity_path_181" fill="rgba(0, 0, 0, .25)" stroke="none" d="M928,403h0a51,51,0,0,1,51,51v0a51,51,0,0,1,-51,51h0a51,51,0,0,1,-51,-51v0a51,51,0,0,1,51,-51z" display="none"></path><g id="node_expander11" style="cursor: pointer;" display="none"><path id="kity_path_128" fill="white" stroke="gray" d="M869.5,448.5A6,6,0,1,1,857.5,448.5A6,6,0,1,1,869.5,448.5"></path><path id="kity_path_129" fill="none" stroke="gray"></path></g><path id="node_outline12" fill="none" stroke="none" d="M874.5,437.5h92a5,5,0,0,1,5,5v12a5,5,0,0,1,-5,5h-92a5,5,0,0,1,-5,-5v-12a5,5,0,0,1,5,-5z" stroke-width="3"></path><g id="node_text12" fill="black"><text id="kity_text_125" text-rendering="inherit" font-size="12" dy=".8em" y="440.7000000476837" x="879.5">website:CURD</text></g></g><g id="minder_node13" opacity="1"><path id="kity_path_186" fill="rgba(0, 0, 0, .25)" stroke="none" d="M81,285h0a47,47,0,0,1,47,47v0a47,47,0,0,1,-47,47h0a47,47,0,0,1,-47,-47v0a47,47,0,0,1,47,-47z" display="none"></path><g id="node_expander12" style="cursor: pointer;" display="none"><path id="kity_path_136" fill="white" stroke="gray" d="M133.5,326.5A6,6,0,1,1,121.5,326.5A6,6,0,1,1,133.5,326.5"></path><path id="kity_path_137" fill="none" stroke="gray"></path></g><path id="node_outline13" fill="none" stroke="none" d="M31.5,315.5h85a5,5,0,0,1,5,5v12a5,5,0,0,1,-5,5h-85a5,5,0,0,1,-5,-5v-12a5,5,0,0,1,5,-5z" stroke-width="3"></path><g id="node_text13" fill="black"><text id="kity_text_133" text-rendering="inherit" font-size="12" dy=".8em" y="318.7000000476837" x="36.5">link_cate类型</text></g></g><g id="minder_node14" opacity="1"><path id="kity_path_179" fill="rgba(0, 0, 0, .25)" stroke="none" d="M924.5,205h0a50,50,0,0,1,50,50v0a50,50,0,0,1,-50,50h0a50,50,0,0,1,-50,-50v0a50,50,0,0,1,50,-50z" display="none"></path><g id="node_expander13" style="cursor: pointer;" display="none"><path id="kity_path_144" fill="white" stroke="gray" d="M867.5,250A6,6,0,1,1,855.5,250A6,6,0,1,1,867.5,250"></path><path id="kity_path_145" fill="none" stroke="gray"></path></g><path id="node_outline14" fill="none" stroke="none" d="M872.5,236.5h91a5,5,0,0,1,5,5v17a5,5,0,0,1,-5,5h-91a5,5,0,0,1,-5,-5v-17a5,5,0,0,1,5,-5z" stroke-width="3"></path><g id="node_text14" fill="black"><text id="kity_text_141" text-rendering="inherit" font-size="12" dy=".8em" y="241.70000004768372" x="877.5">pp_prosee</text></g><g id="kity_g_146" style="cursor: pointer;"><path id="kity_path_147" fill="none" stroke="none" d="M945,241h12a2,2,0,0,1,2,2v13a2,2,0,0,1,-2,2h-12a2,2,0,0,1,-2,-2v-13a2,2,0,0,1,2,-2z"></path><path id="kity_path_148" fill="black" stroke="none" d="M954,252H948V251h6L954,252L954,252zM954,250H948V249h6V250zM954,248H948V247h6V248zM953.5,254H947V245h8v7.5M954,255l2,-2V244H946v11"></path></g></g><g id="minder_node15" opacity="1"><path id="kity_path_183" fill="rgba(0, 0, 0, .25)" stroke="none" d="M933,522h0a42,42,0,0,1,42,42v0a42,42,0,0,1,-42,42h0a42,42,0,0,1,-42,-42v0a42,42,0,0,1,42,-42z" display="none"></path><g id="node_expander14" style="cursor: pointer;" display="none"><path id="kity_path_155" fill="white" stroke="gray" d="M883.5,558.5A6,6,0,1,1,871.5,558.5A6,6,0,1,1,883.5,558.5"></path><path id="kity_path_156" fill="none" stroke="gray"></path></g><path id="node_outline15" fill="none" stroke="none" d="M888.5,547.5h76a5,5,0,0,1,5,5v12a5,5,0,0,1,-5,5h-76a5,5,0,0,1,-5,-5v-12a5,5,0,0,1,5,-5z" stroke-width="3"></path><g id="node_text15" fill="black"><text id="kity_text_152" text-rendering="inherit" font-size="12" dy=".8em" y="550.7000000476837" x="893.5">tourist:显示</text></g></g><g id="kity_g_12" display="none"><path id="kity_path_13" fill="none" stroke="rgb(66, 94, 112)" d="M879.5,550.5h60a5,5,0,0,1,5,5v12a5,5,0,0,1,-5,5h-60a5,5,0,0,1,-5,-5v-12a5,5,0,0,1,5,-5z" stroke-width="5"></path></g><g id="minder_node16" opacity="1"><path id="kity_path_184" fill="rgba(0, 0, 0, .25)" stroke="none" d="M940.5,578h0a43,43,0,0,1,43,43v0a43,43,0,0,1,-43,43h0a43,43,0,0,1,-43,-43v0a43,43,0,0,1,43,-43z" display="none"></path><g id="node_expander15" style="cursor: pointer;" display="none"><path id="kity_path_163" fill="white" stroke="gray" d="M890.5,615.5A6,6,0,1,1,878.5,615.5A6,6,0,1,1,890.5,615.5"></path><path id="kity_path_164" fill="none" stroke="gray"></path></g><path id="node_outline16" fill="none" stroke="none" d="M895.5,604.5h77a5,5,0,0,1,5,5v12a5,5,0,0,1,-5,5h-77a5,5,0,0,1,-5,-5v-12a5,5,0,0,1,5,-5z" stroke-width="3"></path><g id="node_text16" fill="black"><text id="kity_text_160" text-rendering="inherit" font-size="12" dy=".8em" y="607.7000000476837" x="900.5">prosee:显示</text></g></g><g id="minder_node17" opacity="1"><path id="kity_path_187" fill="rgba(0, 0, 0, .25)" stroke="none" d="M82.5,367h0a54,54,0,0,1,54,54v0a54,54,0,0,1,-54,54h0a54,54,0,0,1,-54,-54v0a54,54,0,0,1,54,-54z" display="none"></path><g id="node_expander16" style="cursor: pointer;" display="none"><path id="kity_path_171" fill="white" stroke="gray" d="M141.5,415.5A6,6,0,1,1,129.5,415.5A6,6,0,1,1,141.5,415.5"></path><path id="kity_path_172" fill="none" stroke="gray"></path></g><path id="node_outline17" fill="none" stroke="none" d="M25.5,404.5h99a5,5,0,0,1,5,5v12a5,5,0,0,1,-5,5h-99a5,5,0,0,1,-5,-5v-12a5,5,0,0,1,5,-5z" stroke-width="3"></path><g id="node_text17" fill="black"><text id="kity_text_168" text-rendering="inherit" font-size="12" dy=".8em" y="407.7000000476837" x="30.5">其它&amp;&amp;contact</text></g></g></g></g></svg>